_________________________  Visit us at _________________________
  
http://p2pdl.com  ____________________________  http://p2pdl.com

 
http://www.shotpix.com/images/27372600378216026441.jpg


The Collection 2012 BRRip 720p x264 AAC - PRiSTiNE [P2PDL]
				
Genre: Action | Horror | Thriller
A man who escapes from the vicious grips of the serial killer known as "The Collector" is blackmailed to rescue an innocent girl from the killer's booby-trapped warehouse.
Director: Marcus Dunstan
Stars: Josh Stewart, Emma Fitzpatrick, Christopher McDonald
Rated: PG 13

Info:  
http://www.imdb.com/title/tt1748227/




General
Complete name                  : The Collection 2012 BRRip 720p x264 AAC - PRiSTiNE [P2PDL].mp4
Format                         : MPEG-4
Format profile                 : Base Media / Version 2
Codec ID                       : mp42
File size                      : 437 MiB
Duration                       : 1h 21mn
Overall bit rate mode          : Variable
Overall bit rate               : 749 Kbps

Source                         : 720p.BluRay.x264-DAA (Thanks)

Video
Format                         : AVC
Width                          : 1 280 pixels
Height                         : 544 pixels
Display aspect ratio           : 2.35:1
Frame rate mode                : Variable
Frame rate                     : 24.000 fps
Scan type                      : Progressive
Bits/(Pixel*Frame)             : 0.040
Stream size                    : 388 MiB (89%)
Writing library                : x264 core 129

Audio
Format                         : AAC
Duration                       : 1h 21mn
Bit rate mode                  : Variable
Bit rate                       : 79.8 Kbps
Channel(s)                     : 2 channels
Channel positions              : Front: L R
Sampling rate                  : 48.0 KHz
Stream size                    : 46.6 MiB (11%)


Subtitle                       : Yes ( English)


Screens:
 
http://www.shotpix.com/images/63713244674599241824.jpg 
http://www.shotpix.com/images/38341849500742062173.jpg 
http://www.shotpix.com/images/08263749111091711666.jpg 
http://www.shotpix.com/images/10186722586648578681.jpg 
http://www.shotpix.com/images/23465216721505931043.jpg

Thumbs:
 
http://www.shotpix.com/images/55068114161157220308.jpg

----------------------------------------------------------------------------------------------------


Recommend to you to use latest version of VLC player. Install K-Lite Codec Pack or shark007 codecs
in case of any kind of problem in playback (For non-VLC Media Player users). Alternatively, install
Core AVC codecs, the fastest decoder that there is coupled with Community Center Codec Pack and play
on Windows Media Player Classic. Check sample to be sure.
Enjoy!

Greets to: VYTO, a2zRG, MusiK_KinG, Neon, Kuroyukihime, TorDigger, Ash968, StyLishSaLH and staff members at
ExtraTorrent, TPB, H33T, KAT, 1337x, PublicHD, Ahashare, BTScene, SilverTorrent, LimeTorrents, TorrentMafia,
P2PDL, and all others.

Encoder Notes: Looking For Early Access To Anything You Can Provide DVDScr, R5, DVDR, BluRay, Direct
Audio, Early Music Releases, Seedboxes, Dedicated Servers anything u can provide, Advance / Promo CDs/
DVDs. If You Got anything to offer contact me at "prg@hush.com".